<svg xmlns="http://www.w3.org/2000/svg" viewBox="0 0 29 29" id="vector">
    <path fill-rule="evenodd" clip-rule="evenodd" d="M 23.014 17.946 C 23.014 18.707 22.637 19.411 22.021 19.8 L 20.324 21.16 C 20.164 21.261 19.96 21.138 19.96 20.939 L 19.96 12.549 C 19.96 12.11 19.69 11.724 19.294 11.598 L 17.187 10.926 C 16.913 10.838 16.632 11.043 16.632 11.332 L 16.632 18.815 L 14.654 16.382 C 14.419 16.236 14.128 16.239 13.896 16.391 L 12.001 18.815 L 12.001 11.37 C 12.001 11.071 11.701 10.865 11.422 10.973 L 9.516 11.709 C 9.146 11.851 8.9 12.225 8.9 12.642 L 8.9 20.938 C 8.9 21.137 8.696 21.26 8.535 21.157 L 6.862 19.801 C 6.25 19.412 5.876 18.709 5.876 17.951 L 5.876 10.729 C 5.876 9.871 6.354 9.095 7.094 8.753 L 13.468 5.801 C 13.972 5.568 14.552 5.563 15.059 5.788 L 21.767 8.764 C 22.523 9.099 23.014 9.883 23.014 10.754 L 23.014 17.946 Z M 16.1 22.317 L 15.045 22.859 C 14.641 23.067 14.162 23.067 13.758 22.859 L 12.702 22.317 C 12.643 22.317 12.615 22.221 12.659 22.168 L 14.401 20.075 L 16.144 22.168 C 16.188 22.221 16.16 22.317 16.1 22.317 Z M 14.5 0 C 6.768 0 0.5 6.268 0.5 14 C 0.5 21.732 6.768 28 14.5 28 C 22.232 28 28.5 21.732 28.5 14 C 28.5 6.268 22.232 0 14.5 0 Z" fill="#ffffff" />
</svg>
